<svg width="16" height="16" xmlns="http://www.w3.org/2000/svg" xmlns:xlink="http://www.w3.org/1999/xlink" xml:space="preserve" overflow="hidden"><defs><clipPath id="clip0"><rect x="632" y="352" width="16" height="16"/></clipPath></defs><g clip-path="url(#clip0)" transform="translate(-632 -352)"><path d="M635.1 363.2C635.194 363.074 635.343 363 635.5 363L638 363C638.276 363 638.5 363.224 638.5 363.5 638.5 363.776 638.276 364 638 364L635.75 364 633.5 367 646.5 367 644.25 364 642 364C641.724 364 641.5 363.776 641.5 363.5 641.5 363.224 641.724 363 642 363L644.5 363C644.657 363 644.806 363.074 644.9 363.2L647.9 367.2C648.066 367.421 648.021 367.734 647.8 367.9 647.714 367.965 647.608 368 647.5 368L632.5 368C632.224 368 632 367.776 632 367.5 632 367.392 632.035 367.286 632.1 367.2L635.1 363.2Z" fill="#FFFFFF" fill-rule="evenodd"/><path d="M636 356C636 353.791 637.791 352 640 352 642.209 352.001 644 353.792 644 356.001 644 358.016 642.5 359.717 640.5 359.969L640.5 365.5C640.5 365.776 640.276 366 640 366 639.724 366 639.5 365.776 639.5 365.5L639.5 359.97C637.499 359.718 635.999 358.016 636 355.999Z" fill="#FFFFFF" fill-rule="evenodd"/></g></svg>